# xmcd
#
# Track frame offsets:
#	150
#	16958
#	33745
#	57298
#	78785
#	105590
#	113408
#	134973
#	158965
#	181225
#	204320
#
# Disc length: 3025 seconds
#
# Revision: 4279762745
# Processed by: cddbd v1.5.2PL0 Copyright (c) Steve Scherf et al.
# Submitted via: EZCDAudioConverter 8.0.2.1
#
DISCID=8b0bcf0b
DTITLE=Various Artist - Dạ Vũ Tình Hồng
DYEAR=1990
DGENRE=Miscellaneous
TTITLE0=Ngọc Lan - Người tình Nam Mỹ
TTITLE1=Kiều Nga - Tôi yêu
TTITLE2=Ngọc Lan - Ru con tình cũ
TTITLE3=Kiều Nga - Mưa đêm độc hành
TTITLE4=Duy Quang - Chuyện tình
TTITLE5=Lệ Hằng - Hạnh phúc lang thang
TTITLE6=Duy Quang - Mười năm tình cũ
TTITLE7=Kiều Nga - Tình lỡ trăm năm
TTITLE8=Ngọc Lan - Chiều tím
TTITLE9=Kiều Nga - Mắt lệ người tình
TTITLE10=Kiều Nga - Thà rằng người chết đi
EXTD=
EXTT0=
EXTT1=
EXTT2=
EXTT3=
EXTT4=
EXTT5=
EXTT6=
EXTT7=
EXTT8=
EXTT9=
EXTT10=
PLAYORDER=
